HIERARCHY
ROOT Root
{
  OFFSET 0.0 0.0 0.0
  CHANNELS 6 Xposition Yposition Zposition Zrotation Yrotation Xrotation
  JOINT Hips
  {
    OFFSET 0.0 100.0 0.0
    CHANNELS 6 Xposition Yposition Zposition Zrotation Yrotation Xrotation
    JOINT Spine1
    {
      OFFSET -0.013727 5.003763 -0.053727
      CHANNELS 3 Zrotation Yrotation Xrotation
      JOINT Spine2
      {
        OFFSET -0.0 7.125301 -0.029825
        CHANNELS 3 Zrotation Yrotation Xrotation
        JOINT Chest
        {
          OFFSET -1e-06 7.550063 -0.815971
          CHANNELS 3 Zrotation Yrotation Xrotation
          JOINT Neck1
          {
            OFFSET -0.181677 26.311295 -0.553348
            CHANNELS 3 Zrotation Yrotation Xrotation
            JOINT Neck2
            {
              OFFSET -3e-06 7.709397 2.302585
              CHANNELS 3 Zrotation Yrotation Xrotation
              JOINT Head
              {
                OFFSET -5e-06 6.128916 1.953709
                CHANNELS 3 Zrotation Yrotation Xrotation
                JOINT HeadEnd
                {
                  OFFSET 0.003598 16.065403 -1.835379
                  CHANNELS 3 Zrotation Yrotation Xrotation
                }
                JOINT Jaw
                {
                  OFFSET 0.002637 0.475592 3.094941
                  CHANNELS 3 Zrotation Yrotation Xrotation
                }
                JOINT LeftEye
                {
                  OFFSET 3.206381 5.380205 7.586883
                  CHANNELS 3 Zrotation Yrotation Xrotation
                }
                JOINT RightEye
                {
                  OFFSET -3.22244 5.361869 7.558234
                  CHANNELS 3 Zrotation Yrotation Xrotation
                }
              }
            }
          }
          JOINT LeftShoulder
          {
            OFFSET 1.621652 23.237164 5.113413
            CHANNELS 3 Zrotation Yrotation Xrotation
            JOINT LeftArm
            {
              OFFSET 14.919846 2e-06 -5.502326
              CHANNELS 3 Zrotation Yrotation Xrotation
              JOINT LeftForeArm
              {
                OFFSET 28.739307 0.0 -0.002588
                CHANNELS 3 Zrotation Yrotation Xrotation
                JOINT LeftHand
                {
                  OFFSET 27.093981 -1e-06 0.002609
                  CHANNELS 3 Zrotation Yrotation Xrotation
                  JOINT LeftHandThumb1
                  {
                    OFFSET 2.276482 -1.392045 3.191413
                    CHANNELS 3 Zrotation Yrotation Xrotation
                    JOINT LeftHandThumb2
                    {
                      OFFSET 4.012836 -1.828127 1.641654
                      CHANNELS 3 Zrotation Yrotation Xrotation
                      JOINT LeftHandThumb3
                      {
                        OFFSET 2.798515 0.0 -3e-06
                        CHANNELS 3 Zrotation Yrotation Xrotation
                        JOINT LeftHandThumbEnd
                        {
                          OFFSET 3.180793 -4e-06 4e-06
                          CHANNELS 3 Zrotation Yrotation Xrotation
                        }
                      }
                    }
                  }
                  JOINT LeftHandIndex1
                  {
                    OFFSET 3.247555 -0.531998 2.296169
                    CHANNELS 3 Zrotation Yrotation Xrotation
                    JOINT LeftHandIndex2
                    {
                      OFFSET 6.364578 0.01206 0.1786
                      CHANNELS 3 Zrotation Yrotation Xrotation
                      JOINT LeftHandIndex3
                      {
                        OFFSET 3.662364 0.0 0.0
                        CHANNELS 3 Zrotation Yrotation Xrotation
                        JOINT LeftHandIndex4
                        {
                          OFFSET 2.329242 4e-06 4e-06
                          CHANNELS 3 Zrotation Yrotation Xrotation
                          JOINT LeftHandIndexEnd
                          {
                            OFFSET 2.759615 -0.180537 -0.113024
                            CHANNELS 3 Zrotation Yrotation Xrotation
                          }
                        }
                      }
                    }
                  }
                  JOINT LeftHandMiddle1
                  {
                    OFFSET 3.163495 0.240981 1.000332
                    CHANNELS 3 Zrotation Yrotation Xrotation
                    JOINT LeftHandMiddle2
                    {
                      OFFSET 6.19078 -0.259278 -1.002548
                      CHANNELS 3 Zrotation Yrotation Xrotation
                      JOINT LeftHandMiddle3
                      {
                        OFFSET 4.35652 -4e-06 -1e-06
                        CHANNELS 3 Zrotation Yrotation Xrotation
                        JOINT LeftHandMiddle4
                        {
                          OFFSET 2.996877 -8e-06 0.0
                          CHANNELS 3 Zrotation Yrotation Xrotation
                          JOINT LeftHandMiddleEnd
                          {
                            OFFSET 2.304287 -0.294569 -0.031741
                            CHANNELS 3 Zrotation Yrotation Xrotation
                          }
                        }
                      }
                    }
                  }
                  JOINT LeftHandRing1
                  {
                    OFFSET 2.882643 -0.053652 -0.322543
                    CHANNELS 3 Zrotation Yrotation Xrotation
                    JOINT LeftHandRing2
                    {
                      OFFSET 5.854541 -0.486202 -1.373841
                      CHANNELS 3 Zrotation Yrotation Xrotation
                      JOINT LeftHandRing3
                      {
                        OFFSET 4.350578 0.0 3e-06
                        CHANNELS 3 Zrotation Yrotation Xrotation
                        JOINT LeftHandRing4
                        {
                          OFFSET 2.651321 7e-06 2e-06
                          CHANNELS 3 Zrotation Yrotation Xrotation
                          JOINT LeftHandRingEnd
                          {
                            OFFSET 1.936105 0.077687 -7.1e-05
                            CHANNELS 3 Zrotation Yrotation Xrotation
                          }
                        }
                      }
                    }
                  }
                  JOINT LeftHandPinky1
                  {
                    OFFSET 2.8655 -0.310005 -1.600378
                    CHANNELS 3 Zrotation Yrotation Xrotation
                    JOINT LeftHandPinky2
                    {
                      OFFSET 5.087849 -1.331141 -1.77123
                      CHANNELS 3 Zrotation Yrotation Xrotation
                      JOINT LeftHandPinky3
                      {
                        OFFSET 3.070974 4e-06 0.0
                        CHANNELS 3 Zrotation Yrotation Xrotation
                        JOINT LeftHandPinky4
                        {
                          OFFSET 1.549672 0.0 1e-06
                          CHANNELS 3 Zrotation Yrotation Xrotation
                          JOINT LeftHandPinkyEnd
                          {
                            OFFSET 1.944893 -0.157802 0.057219
                            CHANNELS 3 Zrotation Yrotation Xrotation
                          }
                        }
                      }
                    }
                  }
                }
              }
            }
          }
          JOINT RightShoulder
          {
            OFFSET -1.380118 23.180309 5.214158
            CHANNELS 3 Zrotation Yrotation Xrotation
            JOINT RightArm
            {
              OFFSET -15.037196 1.2e-05 -5.545604
              CHANNELS 3 Zrotation Yrotation Xrotation
              JOINT RightForeArm
              {
                OFFSET -28.736639 2e-06 -0.002597
                CHANNELS 3 Zrotation Yrotation Xrotation
                JOINT RightHand
                {
                  OFFSET -27.133619 -0.0 0.002613
                  CHANNELS 3 Zrotation Yrotation Xrotation
                  JOINT RightHandThumb1
                  {
                    OFFSET -2.274032 -1.383988 3.163127
                    CHANNELS 3 Zrotation Yrotation Xrotation
                    JOINT RightHandThumb2
                    {
                      OFFSET -4.011429 -1.827466 1.640914
                      CHANNELS 3 Zrotation Yrotation Xrotation
                      JOINT RightHandThumb3
                      {
                        OFFSET -2.794935 -4e-06 -3e-06
                        CHANNELS 3 Zrotation Yrotation Xrotation
                        JOINT RightHandThumbEnd
                        {
                          OFFSET -3.183852 4e-06 1e-06
                          CHANNELS 3 Zrotation Yrotation Xrotation
                        }
                      }
                    }
                  }
                  JOINT RightHandIndex1
                  {
                    OFFSET -3.253266 -0.520057 2.282866
                    CHANNELS 3 Zrotation Yrotation Xrotation
                    JOINT RightHandIndex2
                    {
                      OFFSET -6.341917 0.012471 0.178266
                      CHANNELS 3 Zrotation Yrotation Xrotation
                      JOINT RightHandIndex3
                      {
                        OFFSET -3.654871 -8e-06 -0.0
                        CHANNELS 3 Zrotation Yrotation Xrotation
                        JOINT RightHandIndex4
                        {
                          OFFSET -2.327586 0.0 1e-06
                          CHANNELS 3 Zrotation Yrotation Xrotation
                          JOINT RightHandIndexEnd
                          {
                            OFFSET -2.76179 -0.180656 -0.113078
                            CHANNELS 3 Zrotation Yrotation Xrotation
                          }
                        }
                      }
                    }
                  }
                  JOINT RightHandMiddle1
                  {
                    OFFSET -3.168106 0.246593 1.00103
                    CHANNELS 3 Zrotation Yrotation Xrotation
                    JOINT RightHandMiddle2
                    {
                      OFFSET -6.180828 -0.258836 -1.000895
                      CHANNELS 3 Zrotation Yrotation Xrotation
                      JOINT RightHandMiddle3
                      {
                        OFFSET -4.348901 0.0 -0.0
                        CHANNELS 3 Zrotation Yrotation Xrotation
                        JOINT RightHandMiddle4
                        {
                          OFFSET -3.00024 -4e-06 -2e-06
                          CHANNELS 3 Zrotation Yrotation Xrotation
                          JOINT RightHandMiddleEnd
                          {
                            OFFSET -2.30252 -0.29437 -0.031706
                            CHANNELS 3 Zrotation Yrotation Xrotation
                          }
                        }
                      }
                    }
                  }
                  JOINT RightHandRing1
                  {
                    OFFSET -2.88569 -0.067952 -0.308858
                    CHANNELS 3 Zrotation Yrotation Xrotation
                    JOINT RightHandRing2
                    {
                      OFFSET -5.854198 -0.48613 -1.373731
                      CHANNELS 3 Zrotation Yrotation Xrotation
                      JOINT RightHandRing3
                      {
                        OFFSET -4.33881 -4e-06 -0.0
                        CHANNELS 3 Zrotation Yrotation Xrotation
                        JOINT RightHandRing4
                        {
                          OFFSET -2.654903 -4e-06 4e-06
                          CHANNELS 3 Zrotation Yrotation Xrotation
                          JOINT RightHandRingEnd
                          {
                            OFFSET -1.933568 0.077527 -5.2e-05
                            CHANNELS 3 Zrotation Yrotation Xrotation
                          }
                        }
                      }
                    }
                  }
                  JOINT RightHandPinky1
                  {
                    OFFSET -2.866425 -0.342796 -1.584145
                    CHANNELS 3 Zrotation Yrotation Xrotation
                    JOINT RightHandPinky2
                    {
                      OFFSET -5.091371 -1.332055 -1.772385
                      CHANNELS 3 Zrotation Yrotation Xrotation
                      JOINT RightHandPinky3
                      {
                        OFFSET -3.062664 -4e-06 1e-06
                        CHANNELS 3 Zrotation Yrotation Xrotation
                        JOINT RightHandPinky4
                        {
                          OFFSET -1.546529 4e-06 -2e-06
                          CHANNELS 3 Zrotation Yrotation Xrotation
                          JOINT RightHandPinkyEnd
                          {
                            OFFSET -1.945119 -0.157718 0.057211
                            CHANNELS 3 Zrotation Yrotation Xrotation
                          }
                        }
                      }
                    }
                  }
                }
              }
            }
          }
        }
      }
    }
    JOINT LeftLeg
    {
      OFFSET 10.043214 -8.434526 2.595655
      CHANNELS 3 Zrotation Yrotation Xrotation
      JOINT LeftShin
      {
        OFFSET -1e-06 -43.221752 -0.802913
        CHANNELS 3 Zrotation Yrotation Xrotation
        JOINT LeftFoot
        {
          OFFSET 1e-06 -42.155094 -3.481523
          CHANNELS 3 Zrotation Yrotation Xrotation
          JOINT LeftToeBase
          {
            OFFSET 0.0 -5.059472 13.231529
            CHANNELS 3 Zrotation Yrotation Xrotation
            JOINT LeftToeEnd
            {
              OFFSET -0.009607 -1.647619 6.513017
              CHANNELS 3 Zrotation Yrotation Xrotation
            }
          }
        }
      }
    }
    JOINT RightLeg
    {
      OFFSET -10.047278 -8.29526 2.620317
      CHANNELS 3 Zrotation Yrotation Xrotation
      JOINT RightShin
      {
        OFFSET 1e-06 -43.362206 -0.805556
        CHANNELS 3 Zrotation Yrotation Xrotation
        JOINT RightFoot
        {
          OFFSET 2e-06 -42.117393 -3.478398
          CHANNELS 3 Zrotation Yrotation Xrotation
          JOINT RightToeBase
          {
            OFFSET -0.0 -5.079609 13.284196
            CHANNELS 3 Zrotation Yrotation Xrotation
            JOINT RightToeEnd
            {
              OFFSET 0.009532 -1.634378 6.460591
              CHANNELS 3 Zrotation Yrotation Xrotation
            }
          }
        }
      }
    }
  }
}
MOTION
Frames: 4
Frame Time: 0.03333333333333333
0.0 0.0 0.0 0.0 -0.0 0.0 -2.449905 100.536835 4.816141 0.741808 0.018846 -0.289657 -0.6306 -0.054026 -3.907007 -0.67438 0.098916 -6.548473 0.693839 -1.803742 11.886401 -0.496192 3.015154 6.098338 -1.000866 -1.029674 -3.607013 -0.821705 -2.02872 -4.703941 7.7e-05 -2.2e-05 6e-06 0.027445 -0.001195 0.015729 0.73505 -3.722801 -10.554449 -0.683602 3.72577 -10.559405 -16.930004 -2.88325 16.703072 -56.977177 -13.076764 29.615332 0.158417 -24.827433 -0.088397 3.671261 3.046907 -7.296484 -5.882123 9.861183 0.702793 -10.936818 -0.36052 7.156314 -3e-06 8.774858 -4e-06 -16.250544 18.004116 5.94847 -1.844035 2.498507 -2.507292 -10.16363 4.678965 4.621085 -20.976124 3e-06 2e-06 -21.226484 2.451717 -3.594067 2e-06 -6e-06 -2e-06 -1.362692 2.240827 -0.746344 -21.334957 0.58489 3.008318 -13.821272 4e-06 4e-06 -23.887413 -0.249079 -0.839524 -60.496456 2.574623 -1.352954 -0.29404 1.679724 0.833236 -14.218224 0.093178 1.300577 -34.21225 -0.287555 0.967176 -20.03335 0.964547 1.212861 1e-06 1e-06 2e-06 -3.44043 0.788291 0.501616 -15.92817 -3.167376 2.999729 -6.338856 -0.0 1e-06 -18.123631 3.648182 -4.905738 -8e-06 -1e-06 0.0 21.274557 10.270128 19.237793 57.597668 14.671918 20.203974 0.696113 22.414455 0.381432 -7.767113 -2.825791 -0.643107 2.243567 -5.254966 -3.180022 14.282871 -0.826627 6.952557 2e-06 -12.690629 -2e-06 16.158815 -17.628866 2.525303 1.665667 -1.955922 -2.878307 4.727812 -4.1706 4.993909 11.020569 -2e-06 6e-06 12.109153 -3.735738 -2.86682 -1e-06 -0.0 -4e-06 1.291994 -1.928569 -1.498098 14.800149 0.567482 3.865608 14.24262 -1.341744 -6.660677 19.632141 0.143921 -0.648269 49.644257 -0.599387 -6.475534 0.353041 -1.511177 -0.03195 20.222815 3.684334 2.31664 18.787346 -2e-06 4e-06 10.751678 -0.479875 1.397922 -2e-06 3e-06 -3e-06 3.273842 0.305906 -0.580133 21.486807 11.830423 2.26615 8.162955 -2e-06 1e-06 18.399231 -3.798981 -4.940616 3e-06 -2e-06 -3e-06 2.42441 0.239186 -1.119296 0.044459 0.043098 5.586712 -2.382817 1.531687 -4.803614 1.650959 -1.934847 -0.703461 -0.0 0.0 -2e-06 -2.508783 -5.787599 -1.944507 -0.010116 -0.021013 3.397672 3.201459 -2.680203 -0.440953 -1.412457 1.02051 -0.978599 0.0 -0.0 -4e-06 
0.0 0.0 0.0 0.0 -0.0 0.0 -2.430231 100.544785 4.830869 0.727048 0.031885 -0.277423 -0.64032 -0.056662 -3.912886 -0.664456 0.130944 -6.53761 0.727913 -1.862662 11.873202 -0.47135 3.011097 6.094089 -1.006263 -1.022058 -3.581217 -0.859396 -2.056832 -4.737512 7.7e-05 -2.2e-05 6e-06 0.022813 0.02132 0.015138 0.730078 -3.700351 -10.5526 -0.687825 3.747807 -10.559673 -16.860659 -2.914434 16.690609 -57.032143 -13.087843 29.469547 0.028894 -24.83901 -0.081525 3.667912 2.999872 -7.195213 -5.88206 9.861364 0.702386 -10.936912 -0.360644 7.156116 -9e-06 8.774803 -8e-06 -16.242449 17.985802 5.934005 -1.844027 2.498502 -2.50726 -10.163563 4.67894 4.621117 -20.975956 1.2e-05 0.0 -21.226238 2.451698 -3.594009 2e-06 -4e-06 2e-06 -1.36268 2.240781 -0.746311 -21.334831 0.584942 3.008325 -13.821169 6e-06 0.0 -23.887104 -0.249074 -0.839487 -60.49017 2.572521 -1.301212 -0.294027 1.679662 0.833272 -14.218157 0.093248 1.300588 -34.211941 -0.287544 0.967156 -20.033184 0.964536 1.212839 0.0 5e-06 2e-06 -3.440361 0.788212 0.501686 -15.928146 -3.167268 2.999701 -6.338804 3e-06 0.0 -18.123409 3.648185 -4.905673 -7e-06 0.0 -4e-06 21.286173 10.277465 19.285885 57.508499 14.761846 20.146177 0.718261 22.410067 0.373179 -7.695848 -2.78889 -0.769548 2.243514 -5.25504 -3.180237 14.282924 -0.82651 6.952442 1.6e-05 -12.69058 -1.7e-05 16.194618 -17.646179 2.489776 1.665661 -1.955926 -2.878286 4.727797 -4.170591 4.993919 11.020518 -1.1e-05 -1e-06 12.109084 -3.735729 -2.866814 -0.0 -0.0 -3e-06 1.291991 -1.928548 -1.498089 14.800091 0.567437 3.865619 14.242568 -1.341758 -6.660665 19.632017 0.143902 -0.648281 49.782028 -0.594972 -6.478391 0.35304 -1.511147 -0.031941 20.222738 3.684261 2.316648 18.78727 -1.2e-05 -1e-05 10.751642 -0.479871 1.397911 -1e-06 1e-06 -1e-06 3.273803 0.305936 -0.580102 21.486753 11.830312 2.266167 8.16292 -2e-06 -3e-06 18.39912 -3.798986 -4.940612 3e-06 -3e-06 1e-06 2.427594 0.254496 -1.12945 0.028816 0.003136 5.621665 -2.434505 1.598234 -4.891739 1.654467 -1.966671 -0.737646 0.0 0.0 2e-06 -2.493001 -5.658775 -2.016663 -0.012825 -0.007304 3.529779 3.182035 -2.809441 -0.545186 -1.415044 1.000918 -1.030637 0.0 1e-06 1e-06 
0.0 0.0 0.0 0.0 -0.0 0.0 -2.425806 100.541161 4.773745 0.729959 0.026168 -0.257947 -0.651782 -0.065688 -3.927063 -0.660436 0.1376 -6.549521 0.775717 -1.874852 11.903567 -0.445675 3.007527 6.098416 -0.997022 -1.061946 -3.600887 -0.903772 -2.057092 -4.717252 7.7e-05 -2.2e-05 6e-06 0.021696 0.027289 0.013488 0.726258 -3.693774 -10.566147 -0.686124 3.752409 -10.568332 -16.787741 -2.95834 16.655907 -57.077293 -13.059977 29.402422 -0.058569 -24.896215 -0.080679 3.654188 3.017198 -7.261278 -5.882038 9.861412 0.702473 -10.936956 -0.360721 7.156149 -1.3e-05 8.774763 -4e-06 -16.255016 18.014614 5.922589 -1.844023 2.498505 -2.507263 -10.163546 4.678924 4.621114 -20.97591 2.9e-05 -4e-06 -21.226217 2.451689 -3.594005 1e-06 -8e-06 -1e-06 -1.362674 2.240741 -0.746313 -21.334782 0.584989 3.008322 -13.821146 1.9e-05 5e-06 -23.887075 -0.249047 -0.839502 -60.494972 2.598819 -1.335735 -0.294018 1.679612 0.833259 -14.218132 0.093309 1.300593 -34.21188 -0.287509 0.967156 -20.033163 0.964564 1.212827 4e-06 3e-06 2e-06 -3.440323 0.788135 0.501685 -15.928136 -3.16717 2.999696 -6.338796 8e-06 6e-06 -18.123383 3.648192 -4.905673 -4e-06 -1e-06 -2e-06 21.305956 10.275532 19.302042 57.406349 14.832338 20.076761 0.739473 22.409439 0.358321 -7.662901 -2.790108 -0.773634 2.24351 -5.255157 -3.180217 14.282933 -0.826486 6.95248 -3e-06 -12.690527 5e-06 16.226568 -17.640167 2.48027 1.665658 -1.955921 -2.878288 4.727777 -4.170558 4.993925 11.020482 2e-06 1e-06 12.109015 -3.735674 -2.86679 0.0 -1e-06 4e-06 1.291971 -1.928498 -1.498083 14.800064 0.567414 3.865607 14.242511 -1.341722 -6.660648 19.631905 0.143951 -0.648248 49.858112 -0.607809 -6.484354 0.353014 -1.511081 -0.031939 20.222702 3.684213 2.316621 18.787191 -5e-06 6e-06 10.751607 -0.479878 1.397908 3e-06 1e-06 -1e-06 3.273742 0.306039 -0.580088 21.486753 11.830202 2.266096 8.162896 -3e-06 5e-06 18.399033 -3.798965 -4.940551 0.0 -2e-06 0.0 2.417356 0.253922 -1.173821 0.020113 -0.023788 5.690913 -2.456152 1.679365 -4.975342 1.657157 -1.978145 -0.716773 0.0 0.0 4e-06 -2.49466 -5.573452 -2.108695 -0.013907 -0.006103 3.673896 3.17369 -2.908197 -0.630427 -1.415711 0.99125 -1.020019 0.0 -0.0 -0.0 
0.0 0.0 0.0 0.0 -0.0 0.0 -2.425457 100.532913 4.700581 0.73756 0.02806 -0.243615 -0.665091 -0.074924 -3.930044 -0.655407 0.130542 -6.568887 0.817782 -1.872692 11.940187 -0.431218 2.997722 6.112319 -0.986562 -1.107666 -3.629887 -0.927805 -2.051896 -4.709656 7.7e-05 -2.2e-05 6e-06 0.021355 0.023721 0.010139 0.723705 -3.696234 -10.583272 -0.684191 3.747198 -10.579373 -16.738297 -2.988466 16.644552 -57.092613 -13.068377 29.459993 -0.077497 -24.935238 -0.079002 3.680815 3.032945 -7.295889 -5.882081 9.861352 0.702453 -10.936906 -0.360658 7.156147 -2e-06 8.774786 -4e-06 -16.256113 18.015617 5.918571 -1.844025 2.498503 -2.507267 -10.163561 4.678924 4.621114 -20.975956 1e-06 1.1e-05 -21.226246 2.451676 -3.593987 1e-06 -7e-06 -4e-06 -1.362671 2.240764 -0.746318 -21.334841 0.584945 3.008331 -13.821169 -2e-06 1e-05 -23.887127 -0.249089 -0.839465 -60.504391 2.617565 -1.36879 -0.294012 1.679641 0.833257 -14.218166 0.093264 1.300589 -34.211941 -0.287556 0.967185 -20.033192 0.964541 1.212852 -3e-06 0.0 2e-06 -3.440342 0.78817 0.501678 -15.928164 -3.167227 2.999701 -6.338806 -1e-06 2e-06 -18.123405 3.648162 -4.905658 -7e-06 2e-06 -1e-06 21.329077 10.266891 19.318098 57.331726 14.897729 20.01647 0.723748 22.412302 0.343158 -7.628998 -2.818487 -0.741534 2.243516 -5.255099 -3.180248 14.282921 -0.826536 6.952454 1e-05 -12.690569 -4e-06 16.234608 -17.623247 2.486401 1.665664 -1.955924 -2.878297 4.727793 -4.170581 4.993924 11.020506 -6e-06 -3e-06 12.109052 -3.735711 -2.866793 1e-06 0.0 -0.0 1.291991 -1.928538 -1.498084 14.800086 0.567438 3.865606 14.242545 -1.341749 -6.660652 19.631952 0.143916 -0.648267 49.862766 -0.632252 -6.476879 0.353035 -1.511135 -0.031937 20.222734 3.684265 2.316631 18.787243 -1.1e-05 -7e-06 10.75162 -0.479872 1.397907 0.0 1e-06 0.0 3.273799 0.305961 -0.580092 21.486752 11.830298 2.266125 8.16291 -7e-06 -3e-06 18.399073 -3.798987 -4.940588 4e-06 1e-06 -2e-06 2.403454 0.252521 -1.216925 0.016672 -0.038128 5.751461 -2.449934 1.739579 -5.023572 1.658594 -1.978287 -0.713173 0.0 0.0 -0.0 -2.506463 -5.518025 -2.167083 -0.014452 -0.017277 3.767023 3.17339 -2.972867 -0.699306 -1.415277 0.983278 -1.021869 0.0 -0.0 -2e-06 
